<svg width="342" height="348" viewBox="0 0 342 348" fill="none" xmlns="http://www.w3.org/2000/svg">
<path d="M273.492 61C242.292 51.4 246.159 16.3333 251.992 0C250.159 8.5 254.592 27.7 286.992 36.5C305.992 41.6605 332.992 55.9 318.992 89.5C308.492 68.5 286.992 67.5 273.492 61Z" fill="#0157AE"/>
<path d="M27.1893 266.964L27 266.902C54.6 291.302 99 274.902 132 256.402C175.5 232.016 208.167 242.235 219 250.902C161.5 246.902 136.5 272.902 125.5 287.902C172.5 246.902 228 255.569 245.5 266.902L275 289.402C277.8 288.602 278.5 286.402 278.5 285.402L233 248.902C197.4 220.102 148.167 236.902 128.5 248.902C68.1776 280.309 48.6149 273.94 27.1893 266.964Z" fill="#0057B0"/>
<path d="M111.75 128.3C111.75 136.6 110.75 144.15 108.75 150.95C106.75 157.65 103.65 163.45 99.45 168.35C95.25 173.25 89.85 177 83.25 179.6C76.75 182.2 68.9 183.5 59.7 183.5C50.7 183.5 42.9 182.2 36.3 179.6C29.8 177 24.4 173.25 20.1 168.35C15.9 163.45 12.75 157.65 10.65 150.95C8.65 144.15 7.65 136.55 7.65 128.15C7.65 117.05 9.5 107.4 13.2 99.2C16.9 90.9 22.6 84.5 30.3 80C38 75.5 47.85 73.25 59.85 73.25C72.05 73.25 81.95 75.55 89.55 80.15C97.25 84.65 102.85 91.05 106.35 99.35C109.95 107.55 111.75 117.2 111.75 128.3ZM38.1 128.3C38.1 134.7 38.8 140.25 40.2 144.95C41.7 149.55 44.05 153.1 47.25 155.6C50.45 158.1 54.6 159.35 59.7 159.35C65 159.35 69.2 158.1 72.3 155.6C75.5 153.1 77.8 149.55 79.2 144.95C80.6 140.25 81.3 134.7 81.3 128.3C81.3 118.6 79.7 110.95 76.5 105.35C73.3 99.75 67.75 96.95 59.85 96.95C54.65 96.95 50.45 98.25 47.25 100.85C44.05 103.35 41.7 106.95 40.2 111.65C38.8 116.25 38.1 121.8 38.1 128.3ZM205.966 182H122.566V164.15L168.916 98.3H123.616V74.9H204.766V92.75L158.416 158.6H205.966V182ZM320.051 128.3C320.051 136.6 319.051 144.15 317.051 150.95C315.051 157.65 311.951 163.45 307.751 168.35C303.551 173.25 298.151 177 291.551 179.6C285.051 182.2 277.201 183.5 268.001 183.5C259.001 183.5 251.201 182.2 244.601 179.6C238.101 177 232.701 173.25 228.401 168.35C224.201 163.45 221.051 157.65 218.951 150.95C216.951 144.15 215.951 136.55 215.951 128.15C215.951 117.05 217.801 107.4 221.501 99.2C225.201 90.9 230.901 84.5 238.601 80C246.301 75.5 256.151 73.25 268.151 73.25C280.351 73.25 290.251 75.55 297.851 80.15C305.551 84.65 311.151 91.05 314.651 99.35C318.251 107.55 320.051 117.2 320.051 128.3ZM246.401 128.3C246.401 134.7 247.101 140.25 248.501 144.95C250.001 149.55 252.351 153.1 255.551 155.6C258.751 158.1 262.901 159.35 268.001 159.35C273.301 159.35 277.501 158.1 280.601 155.6C283.801 153.1 286.101 149.55 287.501 144.95C288.901 140.25 289.601 134.7 289.601 128.3C289.601 118.6 288.001 110.95 284.801 105.35C281.601 99.75 276.051 96.95 268.151 96.95C262.951 96.95 258.751 98.25 255.551 100.85C252.351 103.35 250.001 106.95 248.501 111.65C247.101 116.25 246.401 121.8 246.401 128.3Z" fill="#B7CDE4"/>
<path d="M113.75 128.3C113.75 136.6 112.75 144.15 110.75 150.95C108.75 157.65 105.65 163.45 101.45 168.35C97.25 173.25 91.85 177 85.25 179.6C78.75 182.2 70.9 183.5 61.7 183.5C52.7 183.5 44.9 182.2 38.3 179.6C31.8 177 26.4 173.25 22.1 168.35C17.9 163.45 14.75 157.65 12.65 150.95C10.65 144.15 9.65 136.55 9.65 128.15C9.65 117.05 11.5 107.4 15.2 99.2C18.9 90.9 24.6 84.5 32.3 80C40 75.5 49.85 73.25 61.85 73.25C74.05 73.25 83.95 75.55 91.55 80.15C99.25 84.65 104.85 91.05 108.35 99.35C111.95 107.55 113.75 117.2 113.75 128.3ZM40.1 128.3C40.1 134.7 40.8 140.25 42.2 144.95C43.7 149.55 46.05 153.1 49.25 155.6C52.45 158.1 56.6 159.35 61.7 159.35C67 159.35 71.2 158.1 74.3 155.6C77.5 153.1 79.8 149.55 81.2 144.95C82.6 140.25 83.3 134.7 83.3 128.3C83.3 118.6 81.7 110.95 78.5 105.35C75.3 99.75 69.75 96.95 61.85 96.95C56.65 96.95 52.45 98.25 49.25 100.85C46.05 103.35 43.7 106.95 42.2 111.65C40.8 116.25 40.1 121.8 40.1 128.3ZM207.966 182H124.566V164.15L170.916 98.3H125.616V74.9H206.766V92.75L160.416 158.6H207.966V182ZM322.051 128.3C322.051 136.6 321.051 144.15 319.051 150.95C317.051 157.65 313.951 163.45 309.751 168.35C305.551 173.25 300.151 177 293.551 179.6C287.051 182.2 279.201 183.5 270.001 183.5C261.001 183.5 253.201 182.2 246.601 179.6C240.101 177 234.701 173.25 230.401 168.35C226.201 163.45 223.051 157.65 220.951 150.95C218.951 144.15 217.951 136.55 217.951 128.15C217.951 117.05 219.801 107.4 223.501 99.2C227.201 90.9 232.901 84.5 240.601 80C248.301 75.5 258.151 73.25 270.151 73.25C282.351 73.25 292.251 75.55 299.851 80.15C307.551 84.65 313.151 91.05 316.651 99.35C320.251 107.55 322.051 117.2 322.051 128.3ZM248.401 128.3C248.401 134.7 249.101 140.25 250.501 144.95C252.001 149.55 254.351 153.1 257.551 155.6C260.751 158.1 264.901 159.35 270.001 159.35C275.301 159.35 279.501 158.1 282.601 155.6C285.801 153.1 288.101 149.55 289.501 144.95C290.901 140.25 291.601 134.7 291.601 128.3C291.601 118.6 290.001 110.95 286.801 105.35C283.601 99.75 278.051 96.95 270.151 96.95C264.951 96.95 260.751 98.25 257.551 100.85C254.351 103.35 252.001 106.95 250.501 111.65C249.101 116.25 248.401 121.8 248.401 128.3Z" fill="#0057B0"/>
<path d="M6.024 331V305.8H21.684V307.888H8.22V317.032H20.496V319.192H8.22V328.876H22.116V331H6.024ZM31.6957 331L24.8917 313.756H27.1597L32.5957 327.868L37.8877 313.756H40.0837L33.5317 331H31.6957ZM50.1614 331.396C48.6014 331.396 47.2094 331.036 45.9854 330.316C44.7854 329.572 43.8374 328.528 43.1414 327.184C42.4694 325.816 42.1334 324.208 42.1334 322.36C42.1334 320.56 42.4694 318.988 43.1414 317.644C43.8374 316.3 44.7854 315.256 45.9854 314.512C47.1854 313.744 48.5534 313.36 50.0894 313.36C51.6494 313.36 52.9694 313.756 54.0494 314.548C55.1534 315.316 55.9934 316.324 56.5694 317.572C57.1454 318.796 57.4334 320.092 57.4334 321.46V322.18H44.3294C44.2814 324.34 44.7854 326.092 45.8414 327.436C46.9214 328.756 48.3734 329.416 50.1974 329.416C51.5414 329.416 52.6694 329.08 53.5814 328.408C54.4934 327.712 55.2374 326.692 55.8134 325.348L57.6134 326.392C56.0774 329.728 53.5934 331.396 50.1614 331.396ZM44.4734 320.308H55.2734C55.1534 319.372 54.8534 318.52 54.3734 317.752C53.9174 316.984 53.3174 316.372 52.5734 315.916C51.8534 315.46 51.0254 315.232 50.0894 315.232C48.6254 315.232 47.3894 315.688 46.3814 316.6C45.3974 317.488 44.7614 318.724 44.4734 320.308ZM61.9843 331V313.756H64.0723L64.1803 316.744C64.6603 315.736 65.4163 314.92 66.4483 314.296C67.5043 313.648 68.6683 313.324 69.9403 313.324C70.2763 313.324 70.6123 313.348 70.9483 313.396C71.3083 313.42 71.6083 313.468 71.8483 313.54V315.664C71.6323 315.616 71.3203 315.568 70.9123 315.52C70.5283 315.472 70.1323 315.448 69.7243 315.448C68.7163 315.448 67.7923 315.688 66.9523 316.168C66.1123 316.624 65.4403 317.248 64.9363 318.04C64.4563 318.808 64.2163 319.684 64.2163 320.668V331H61.9843ZM76.3835 338.776C75.9515 338.776 75.5075 338.74 75.0515 338.668C74.6195 338.62 74.2355 338.548 73.8995 338.452V336.4C74.2355 336.496 74.6075 336.568 75.0155 336.616C75.4475 336.688 75.8555 336.724 76.2395 336.724C77.1275 336.724 77.7875 336.52 78.2195 336.112C78.6515 335.728 79.0595 335.044 79.4435 334.06L80.5955 331L73.8275 313.756H76.0955L81.6035 328.264L86.8955 313.756H89.1995L81.3875 334.744C80.8835 336.136 80.2475 337.156 79.4795 337.804C78.7115 338.452 77.6795 338.776 76.3835 338.776ZM103.337 331V305.8H112.553C114.977 305.8 116.777 306.364 117.953 307.492C119.129 308.596 119.717 310.156 119.717 312.172C119.717 313.516 119.393 314.668 118.745 315.628C118.097 316.588 117.245 317.284 116.189 317.716C117.629 318.148 118.781 318.964 119.645 320.164C120.533 321.34 120.977 322.708 120.977 324.268C120.977 326.452 120.341 328.12 119.069 329.272C117.797 330.424 115.817 331 113.129 331H103.337ZM105.533 328.876H112.949C114.941 328.876 116.381 328.48 117.269 327.688C118.181 326.896 118.637 325.696 118.637 324.088C118.637 322.528 118.097 321.28 117.017 320.344C115.937 319.408 114.545 318.94 112.841 318.94H105.533V328.876ZM105.533 316.816H112.661C114.173 316.816 115.337 316.408 116.153 315.592C116.969 314.752 117.377 313.684 117.377 312.388C117.377 310.828 116.969 309.688 116.153 308.968C115.337 308.248 114.041 307.888 112.265 307.888H105.533V316.816ZM125.652 331V313.756H127.74L127.848 316.744C128.328 315.736 129.084 314.92 130.116 314.296C131.172 313.648 132.336 313.324 133.608 313.324C133.944 313.324 134.28 313.348 134.616 313.396C134.976 313.42 135.276 313.468 135.516 313.54V315.664C135.3 315.616 134.988 315.568 134.58 315.52C134.196 315.472 133.8 315.448 133.392 315.448C132.384 315.448 131.46 315.688 130.62 316.168C129.78 316.624 129.108 317.248 128.604 318.04C128.124 318.808 127.884 319.684 127.884 320.668V331H125.652ZM146.243 331.396C144.683 331.396 143.291 331.036 142.067 330.316C140.867 329.572 139.919 328.528 139.223 327.184C138.551 325.816 138.215 324.208 138.215 322.36C138.215 320.56 138.551 318.988 139.223 317.644C139.919 316.3 140.867 315.256 142.067 314.512C143.267 313.744 144.635 313.36 146.171 313.36C147.731 313.36 149.051 313.756 150.131 314.548C151.235 315.316 152.075 316.324 152.651 317.572C153.227 318.796 153.515 320.092 153.515 321.46V322.18H140.411C140.363 324.34 140.867 326.092 141.923 327.436C143.003 328.756 144.455 329.416 146.279 329.416C147.623 329.416 148.751 329.08 149.663 328.408C150.575 327.712 151.319 326.692 151.895 325.348L153.695 326.392C152.159 329.728 149.675 331.396 146.243 331.396ZM140.555 320.308H151.355C151.235 319.372 150.935 318.52 150.455 317.752C149.999 316.984 149.399 316.372 148.655 315.916C147.935 315.46 147.107 315.232 146.171 315.232C144.707 315.232 143.471 315.688 142.463 316.6C141.479 317.488 140.843 318.724 140.555 320.308ZM162.323 331.324C160.643 331.348 159.275 330.964 158.219 330.172C157.187 329.38 156.671 328.228 156.671 326.716C156.671 325.564 157.055 324.556 157.823 323.692C158.615 322.828 159.611 322.156 160.811 321.676C162.035 321.172 163.295 320.92 164.591 320.92C166.367 320.92 167.771 321.34 168.803 322.18V319.228C168.803 317.62 168.467 316.576 167.795 316.096C167.123 315.592 166.043 315.34 164.555 315.34C163.595 315.34 162.527 315.52 161.351 315.88C160.175 316.216 159.179 316.648 158.363 317.176L157.319 315.448C158.255 314.848 159.383 314.344 160.703 313.936C162.047 313.528 163.331 313.324 164.555 313.324C166.739 313.324 168.347 313.744 169.379 314.584C170.411 315.424 170.927 316.972 170.927 319.228V328.768C170.927 329.224 171.047 329.488 171.287 329.56C171.551 329.608 172.115 329.548 172.979 329.38V330.928C172.739 331.024 172.415 331.108 172.007 331.18C171.599 331.276 171.215 331.324 170.855 331.324C170.039 331.324 169.511 331.156 169.271 330.82C169.031 330.484 168.887 329.848 168.839 328.912C168.095 329.728 167.111 330.328 165.887 330.712C164.663 331.096 163.475 331.3 162.323 331.324ZM162.431 329.344C163.583 329.32 164.651 329.14 165.635 328.804C166.643 328.468 167.435 327.988 168.011 327.364C168.611 326.716 168.887 325.936 168.839 325.024C168.767 324.28 168.359 323.728 167.615 323.368C166.871 322.984 165.911 322.804 164.735 322.828C163.751 322.828 162.803 322.996 161.891 323.332C160.979 323.668 160.235 324.136 159.659 324.736C159.107 325.312 158.831 325.984 158.831 326.752C158.831 327.64 159.167 328.3 159.839 328.732C160.511 329.14 161.375 329.344 162.431 329.344ZM182.623 331.396C181.087 331.396 179.935 331.072 179.167 330.424C178.399 329.776 178.015 328.612 178.015 326.932V315.772H174.271V313.756H178.015V307.42H180.175V313.756H185.431V315.772H180.175V326.572C180.175 327.652 180.403 328.396 180.859 328.804C181.315 329.188 182.023 329.38 182.983 329.38C183.391 329.38 183.823 329.32 184.279 329.2C184.735 329.08 185.119 328.948 185.431 328.804V330.928C185.095 331.048 184.663 331.156 184.135 331.252C183.607 331.348 183.103 331.396 182.623 331.396ZM189.461 331V305.008H191.657V316.204C192.161 315.388 192.869 314.704 193.781 314.152C194.717 313.6 195.773 313.324 196.949 313.324C198.797 313.324 200.285 313.912 201.413 315.088C202.541 316.264 203.105 317.944 203.105 320.128V331H200.945V320.452C200.945 318.772 200.537 317.512 199.721 316.672C198.929 315.832 197.897 315.412 196.625 315.412C195.665 315.412 194.801 315.628 194.033 316.06C193.289 316.468 192.701 317.032 192.269 317.752C191.861 318.448 191.657 319.228 191.657 320.092V331H189.461ZM218.93 331V305.8H221.126L229.802 318.796L238.37 305.8H240.638V331H238.37V309.652L230.414 321.784H229.19L221.162 309.652V331H218.93ZM250.952 331.324C249.272 331.348 247.904 330.964 246.848 330.172C245.816 329.38 245.3 328.228 245.3 326.716C245.3 325.564 245.684 324.556 246.452 323.692C247.244 322.828 248.24 322.156 249.44 321.676C250.664 321.172 251.924 320.92 253.22 320.92C254.996 320.92 256.4 321.34 257.432 322.18V319.228C257.432 317.62 257.096 316.576 256.424 316.096C255.752 315.592 254.672 315.34 253.184 315.34C252.224 315.34 251.156 315.52 249.98 315.88C248.804 316.216 247.808 316.648 246.992 317.176L245.948 315.448C246.884 314.848 248.012 314.344 249.332 313.936C250.676 313.528 251.96 313.324 253.184 313.324C255.368 313.324 256.976 313.744 258.008 314.584C259.04 315.424 259.556 316.972 259.556 319.228V328.768C259.556 329.224 259.676 329.488 259.916 329.56C260.18 329.608 260.744 329.548 261.608 329.38V330.928C261.368 331.024 261.044 331.108 260.636 331.18C260.228 331.276 259.844 331.324 259.484 331.324C258.668 331.324 258.14 331.156 257.9 330.82C257.66 330.484 257.516 329.848 257.468 328.912C256.724 329.728 255.74 330.328 254.516 330.712C253.292 331.096 252.104 331.3 250.952 331.324ZM251.06 329.344C252.212 329.32 253.28 329.14 254.264 328.804C255.272 328.468 256.064 327.988 256.64 327.364C257.24 326.716 257.516 325.936 257.468 325.024C257.396 324.28 256.988 323.728 256.244 323.368C255.5 322.984 254.54 322.804 253.364 322.828C252.38 322.828 251.432 322.996 250.52 323.332C249.608 323.668 248.864 324.136 248.288 324.736C247.736 325.312 247.46 325.984 247.46 326.752C247.46 327.64 247.796 328.3 248.468 328.732C249.14 329.14 250.004 329.344 251.06 329.344ZM271.251 331.396C269.715 331.396 268.563 331.072 267.795 330.424C267.027 329.776 266.643 328.612 266.643 326.932V315.772H262.899V313.756H266.643V307.42H268.803V313.756H274.059V315.772H268.803V326.572C268.803 327.652 269.031 328.396 269.487 328.804C269.943 329.188 270.651 329.38 271.611 329.38C272.019 329.38 272.451 329.32 272.907 329.2C273.363 329.08 273.747 328.948 274.059 328.804V330.928C273.723 331.048 273.291 331.156 272.763 331.252C272.235 331.348 271.731 331.396 271.251 331.396ZM284.822 331.396C283.286 331.396 282.134 331.072 281.366 330.424C280.598 329.776 280.214 328.612 280.214 326.932V315.772H276.47V313.756H280.214V307.42H282.374V313.756H287.63V315.772H282.374V326.572C282.374 327.652 282.602 328.396 283.058 328.804C283.514 329.188 284.222 329.38 285.182 329.38C285.59 329.38 286.022 329.32 286.478 329.2C286.934 329.08 287.318 328.948 287.63 328.804V330.928C287.294 331.048 286.862 331.156 286.334 331.252C285.806 331.348 285.302 331.396 284.822 331.396ZM298.716 331.396C297.156 331.396 295.764 331.036 294.54 330.316C293.34 329.572 292.392 328.528 291.696 327.184C291.024 325.816 290.688 324.208 290.688 322.36C290.688 320.56 291.024 318.988 291.696 317.644C292.392 316.3 293.34 315.256 294.54 314.512C295.74 313.744 297.108 313.36 298.644 313.36C300.204 313.36 301.524 313.756 302.604 314.548C303.708 315.316 304.548 316.324 305.124 317.572C305.7 318.796 305.988 320.092 305.988 321.46V322.18H292.884C292.836 324.34 293.34 326.092 294.396 327.436C295.476 328.756 296.928 329.416 298.752 329.416C300.096 329.416 301.224 329.08 302.136 328.408C303.048 327.712 303.792 326.692 304.368 325.348L306.168 326.392C304.632 329.728 302.148 331.396 298.716 331.396ZM293.028 320.308H303.828C303.708 319.372 303.408 318.52 302.928 317.752C302.472 316.984 301.872 316.372 301.128 315.916C300.408 315.46 299.58 315.232 298.644 315.232C297.18 315.232 295.944 315.688 294.936 316.6C293.952 317.488 293.316 318.724 293.028 320.308ZM310.539 331V313.756H312.627L312.735 316.744C313.215 315.736 313.971 314.92 315.003 314.296C316.059 313.648 317.223 313.324 318.495 313.324C318.831 313.324 319.167 313.348 319.503 313.396C319.863 313.42 320.163 313.468 320.403 313.54V315.664C320.187 315.616 319.875 315.568 319.467 315.52C319.083 315.472 318.687 315.448 318.279 315.448C317.271 315.448 316.347 315.688 315.507 316.168C314.667 316.624 313.995 317.248 313.491 318.04C313.011 318.808 312.771 319.684 312.771 320.668V331H310.539ZM329.978 331.396C328.442 331.396 327.05 331.096 325.802 330.496C324.554 329.896 323.546 329.044 322.778 327.94L324.362 326.608C324.938 327.496 325.718 328.18 326.702 328.66C327.71 329.14 328.826 329.38 330.05 329.38C331.226 329.38 332.222 329.128 333.038 328.624C333.878 328.096 334.298 327.28 334.298 326.176C334.298 325.192 333.902 324.508 333.11 324.124C332.318 323.74 331.106 323.38 329.474 323.044C328.466 322.828 327.506 322.564 326.594 322.252C325.706 321.94 324.986 321.472 324.434 320.848C323.882 320.2 323.606 319.312 323.606 318.184C323.606 317.152 323.882 316.276 324.434 315.556C325.01 314.836 325.766 314.284 326.702 313.9C327.638 313.516 328.634 313.324 329.69 313.324C332.522 313.324 334.598 314.332 335.918 316.348L334.442 317.68C333.458 316.12 331.886 315.34 329.726 315.34C328.478 315.34 327.518 315.616 326.846 316.168C326.174 316.696 325.838 317.356 325.838 318.148C325.838 319.036 326.198 319.672 326.918 320.056C327.662 320.416 328.802 320.764 330.338 321.1C331.418 321.34 332.426 321.64 333.362 322C334.322 322.36 335.09 322.864 335.666 323.512C336.242 324.16 336.53 325.06 336.53 326.212C336.53 327.748 335.93 328.996 334.73 329.956C333.554 330.916 331.97 331.396 329.978 331.396Z" fill="black"/>
</svg>
