<svg width="343" height="233" viewBox="0 0 343 233" fill="none" xmlns="http://www.w3.org/2000/svg">
<path d="M32.1893 209.964L32 209.902C59.6 234.302 104 217.902 137 199.402C180.5 175.016 213.167 185.235 224 193.902C166.5 189.902 141.5 215.902 130.5 230.902C177.5 189.902 233 198.569 250.5 209.902L280 232.402C282.8 231.602 283.5 229.402 283.5 228.402L238 191.902C202.4 163.102 153.167 179.902 133.5 191.902C73.1776 223.309 53.6149 216.94 32.1893 209.964Z" fill="#0057B0"/>
<path d="M111.75 106.3C111.75 114.6 110.75 122.15 108.75 128.95C106.75 135.65 103.65 141.45 99.45 146.35C95.25 151.25 89.85 155 83.25 157.6C76.75 160.2 68.9 161.5 59.7 161.5C50.7 161.5 42.9 160.2 36.3 157.6C29.8 155 24.4 151.25 20.1 146.35C15.9 141.45 12.75 135.65 10.65 128.95C8.65 122.15 7.65 114.55 7.65 106.15C7.65 95.05 9.5 85.4 13.2 77.2C16.9 68.9 22.6 62.5 30.3 58C38 53.5 47.85 51.25 59.85 51.25C72.05 51.25 81.95 53.55 89.55 58.15C97.25 62.65 102.85 69.05 106.35 77.35C109.95 85.55 111.75 95.2 111.75 106.3ZM38.1 106.3C38.1 112.7 38.8 118.25 40.2 122.95C41.7 127.55 44.05 131.1 47.25 133.6C50.45 136.1 54.6 137.35 59.7 137.35C65 137.35 69.2 136.1 72.3 133.6C75.5 131.1 77.8 127.55 79.2 122.95C80.6 118.25 81.3 112.7 81.3 106.3C81.3 96.6 79.7 88.95 76.5 83.35C73.3 77.75 67.75 74.95 59.85 74.95C54.65 74.95 50.45 76.25 47.25 78.85C44.05 81.35 41.7 84.95 40.2 89.65C38.8 94.25 38.1 99.8 38.1 106.3ZM205.966 160H122.566V142.15L168.916 76.3H123.616V52.9H204.766V70.75L158.416 136.6H205.966V160ZM320.051 106.3C320.051 114.6 319.051 122.15 317.051 128.95C315.051 135.65 311.951 141.45 307.751 146.35C303.551 151.25 298.151 155 291.551 157.6C285.051 160.2 277.201 161.5 268.001 161.5C259.001 161.5 251.201 160.2 244.601 157.6C238.101 155 232.701 151.25 228.401 146.35C224.201 141.45 221.051 135.65 218.951 128.95C216.951 122.15 215.951 114.55 215.951 106.15C215.951 95.05 217.801 85.4 221.501 77.2C225.201 68.9 230.901 62.5 238.601 58C246.301 53.5 256.151 51.25 268.151 51.25C280.351 51.25 290.251 53.55 297.851 58.15C305.551 62.65 311.151 69.05 314.651 77.35C318.251 85.55 320.051 95.2 320.051 106.3ZM246.401 106.3C246.401 112.7 247.101 118.25 248.501 122.95C250.001 127.55 252.351 131.1 255.551 133.6C258.751 136.1 262.901 137.35 268.001 137.35C273.301 137.35 277.501 136.1 280.601 133.6C283.801 131.1 286.101 127.55 287.501 122.95C288.901 118.25 289.601 112.7 289.601 106.3C289.601 96.6 288.001 88.95 284.801 83.35C281.601 77.75 276.051 74.95 268.151 74.95C262.951 74.95 258.751 76.25 255.551 78.85C252.351 81.35 250.001 84.95 248.501 89.65C247.101 94.25 246.401 99.8 246.401 106.3Z" fill="#B7CDE4"/>
<path d="M114.75 106.3C114.75 114.6 113.75 122.15 111.75 128.95C109.75 135.65 106.65 141.45 102.45 146.35C98.25 151.25 92.85 155 86.25 157.6C79.75 160.2 71.9 161.5 62.7 161.5C53.7 161.5 45.9 160.2 39.3 157.6C32.8 155 27.4 151.25 23.1 146.35C18.9 141.45 15.75 135.65 13.65 128.95C11.65 122.15 10.65 114.55 10.65 106.15C10.65 95.05 12.5 85.4 16.2 77.2C19.9 68.9 25.6 62.5 33.3 58C41 53.5 50.85 51.25 62.85 51.25C75.05 51.25 84.95 53.55 92.55 58.15C100.25 62.65 105.85 69.05 109.35 77.35C112.95 85.55 114.75 95.2 114.75 106.3ZM41.1 106.3C41.1 112.7 41.8 118.25 43.2 122.95C44.7 127.55 47.05 131.1 50.25 133.6C53.45 136.1 57.6 137.35 62.7 137.35C68 137.35 72.2 136.1 75.3 133.6C78.5 131.1 80.8 127.55 82.2 122.95C83.6 118.25 84.3 112.7 84.3 106.3C84.3 96.6 82.7 88.95 79.5 83.35C76.3 77.75 70.75 74.95 62.85 74.95C57.65 74.95 53.45 76.25 50.25 78.85C47.05 81.35 44.7 84.95 43.2 89.65C41.8 94.25 41.1 99.8 41.1 106.3ZM208.966 160H125.566V142.15L171.916 76.3H126.616V52.9H207.766V70.75L161.416 136.6H208.966V160ZM323.051 106.3C323.051 114.6 322.051 122.15 320.051 128.95C318.051 135.65 314.951 141.45 310.751 146.35C306.551 151.25 301.151 155 294.551 157.6C288.051 160.2 280.201 161.5 271.001 161.5C262.001 161.5 254.201 160.2 247.601 157.6C241.101 155 235.701 151.25 231.401 146.35C227.201 141.45 224.051 135.65 221.951 128.95C219.951 122.15 218.951 114.55 218.951 106.15C218.951 95.05 220.801 85.4 224.501 77.2C228.201 68.9 233.901 62.5 241.601 58C249.301 53.5 259.151 51.25 271.151 51.25C283.351 51.25 293.251 53.55 300.851 58.15C308.551 62.65 314.151 69.05 317.651 77.35C321.251 85.55 323.051 95.2 323.051 106.3ZM249.401 106.3C249.401 112.7 250.101 118.25 251.501 122.95C253.001 127.55 255.351 131.1 258.551 133.6C261.751 136.1 265.901 137.35 271.001 137.35C276.301 137.35 280.501 136.1 283.601 133.6C286.801 131.1 289.101 127.55 290.501 122.95C291.901 118.25 292.601 112.7 292.601 106.3C292.601 96.6 291.001 88.95 287.801 83.35C284.601 77.75 279.051 74.95 271.151 74.95C265.951 74.95 261.751 76.25 258.551 78.85C255.351 81.35 253.001 84.95 251.501 89.65C250.101 94.25 249.401 99.8 249.401 106.3Z" fill="#0057B0"/>
</svg>
