<svg width="104" height="61" viewBox="0 0 104 61" fill="none" xmlns="http://www.w3.org/2000/svg">
<path d="M85.8098 21.8101C77.4752 18.3777 78.5081 5.83985 80.0664 0C79.5766 3.03911 80.7609 9.90391 89.4161 13.0503C94.4916 14.8954 101.704 19.9866 97.9644 32C95.1595 24.4916 89.4161 24.1341 85.8098 21.8101Z" fill="white"/>
<path d="M34.27 43.532C34.27 46.0773 33.9633 48.3927 33.35 50.478C32.7367 52.5327 31.786 54.3113 30.498 55.814C29.21 57.3167 27.554 58.4667 25.53 59.264C23.5367 60.0613 21.1293 60.46 18.308 60.46C15.548 60.46 13.156 60.0613 11.132 59.264C9.13867 58.4667 7.48267 57.3167 6.164 55.814C4.876 54.3113 3.91 52.5327 3.266 50.478C2.65267 48.3927 2.346 46.062 2.346 43.486C2.346 40.082 2.91333 37.1227 4.048 34.608C5.18267 32.0627 6.93067 30.1 9.292 28.72C11.6533 27.34 14.674 26.65 18.354 26.65C22.0953 26.65 25.1313 27.3553 27.462 28.766C29.8233 30.146 31.5407 32.1087 32.614 34.654C33.718 37.1687 34.27 40.128 34.27 43.532ZM11.684 43.532C11.684 45.4947 11.8987 47.1967 12.328 48.638C12.788 50.0487 13.5087 51.1373 14.49 51.904C15.4713 52.6707 16.744 53.054 18.308 53.054C19.9333 53.054 21.2213 52.6707 22.172 51.904C23.1533 51.1373 23.8587 50.0487 24.288 48.638C24.7173 47.1967 24.932 45.4947 24.932 43.532C24.932 40.5573 24.4413 38.2113 23.46 36.494C22.4787 34.7767 20.7767 33.918 18.354 33.918C16.7593 33.918 15.4713 34.3167 14.49 35.114C13.5087 35.8807 12.788 36.9847 12.328 38.426C11.8987 39.8367 11.684 41.5387 11.684 43.532ZM63.163 60H37.587V54.526L51.801 34.332H37.909V27.156H62.795V32.63L48.581 52.824H63.163V60ZM98.1489 43.532C98.1489 46.0773 97.8422 48.3927 97.2289 50.478C96.6156 52.5327 95.6649 54.3113 94.3769 55.814C93.0889 57.3167 91.4329 58.4667 89.4089 59.264C87.4156 60.0613 85.0082 60.46 82.1869 60.46C79.4269 60.46 77.0349 60.0613 75.0109 59.264C73.0176 58.4667 71.3616 57.3167 70.0429 55.814C68.7549 54.3113 67.7889 52.5327 67.1449 50.478C66.5316 48.3927 66.2249 46.062 66.2249 43.486C66.2249 40.082 66.7922 37.1227 67.9269 34.608C69.0616 32.0627 70.8096 30.1 73.1709 28.72C75.5322 27.34 78.5529 26.65 82.2329 26.65C85.9742 26.65 89.0102 27.3553 91.3409 28.766C93.7022 30.146 95.4196 32.1087 96.4929 34.654C97.5969 37.1687 98.1489 40.128 98.1489 43.532ZM75.5629 43.532C75.5629 45.4947 75.7776 47.1967 76.2069 48.638C76.6669 50.0487 77.3876 51.1373 78.3689 51.904C79.3502 52.6707 80.6229 53.054 82.1869 53.054C83.8122 53.054 85.1002 52.6707 86.0509 51.904C87.0322 51.1373 87.7376 50.0487 88.1669 48.638C88.5962 47.1967 88.8109 45.4947 88.8109 43.532C88.8109 40.5573 88.3202 38.2113 87.3389 36.494C86.3576 34.7767 84.6556 33.918 82.2329 33.918C80.6382 33.918 79.3502 34.3167 78.3689 35.114C77.3876 35.8807 76.6669 36.9847 76.2069 38.426C75.7776 39.8367 75.5629 41.5387 75.5629 43.532Z" fill="#B7CDE4"/>
<path d="M35.2422 43.532C35.2422 46.0773 34.9355 48.3927 34.3222 50.478C33.7088 52.5327 32.7582 54.3113 31.4702 55.814C30.1822 57.3167 28.5262 58.4667 26.5022 59.264C24.5088 60.0613 22.1015 60.46 19.2802 60.46C16.5202 60.46 14.1282 60.0613 12.1042 59.264C10.1108 58.4667 8.45483 57.3167 7.13617 55.814C5.84817 54.3113 4.88217 52.5327 4.23817 50.478C3.62483 48.3927 3.31817 46.062 3.31817 43.486C3.31817 40.082 3.8855 37.1227 5.02017 34.608C6.15483 32.0627 7.90283 30.1 10.2642 28.72C12.6255 27.34 15.6462 26.65 19.3262 26.65C23.0675 26.65 26.1035 27.3553 28.4342 28.766C30.7955 30.146 32.5128 32.1087 33.5862 34.654C34.6902 37.1687 35.2422 40.128 35.2422 43.532ZM12.6562 43.532C12.6562 45.4947 12.8708 47.1967 13.3002 48.638C13.7602 50.0487 14.4808 51.1373 15.4622 51.904C16.4435 52.6707 17.7162 53.054 19.2802 53.054C20.9055 53.054 22.1935 52.6707 23.1442 51.904C24.1255 51.1373 24.8308 50.0487 25.2602 48.638C25.6895 47.1967 25.9042 45.4947 25.9042 43.532C25.9042 40.5573 25.4135 38.2113 24.4322 36.494C23.4508 34.7767 21.7488 33.918 19.3262 33.918C17.7315 33.918 16.4435 34.3167 15.4622 35.114C14.4808 35.8807 13.7602 36.9847 13.3002 38.426C12.8708 39.8367 12.6562 41.5387 12.6562 43.532ZM64.1352 60H38.5592V54.526L52.7732 34.332H38.8812V27.156H63.7672V32.63L49.5532 52.824H64.1352V60ZM99.1211 43.532C99.1211 46.0773 98.8144 48.3927 98.2011 50.478C97.5877 52.5327 96.6371 54.3113 95.3491 55.814C94.0611 57.3167 92.4051 58.4667 90.3811 59.264C88.3877 60.0613 85.9804 60.46 83.1591 60.46C80.3991 60.46 78.0071 60.0613 75.9831 59.264C73.9897 58.4667 72.3337 57.3167 71.0151 55.814C69.7271 54.3113 68.7611 52.5327 68.1171 50.478C67.5037 48.3927 67.1971 46.062 67.1971 43.486C67.1971 40.082 67.7644 37.1227 68.8991 34.608C70.0337 32.0627 71.7817 30.1 74.1431 28.72C76.5044 27.34 79.5251 26.65 83.2051 26.65C86.9464 26.65 89.9824 27.3553 92.3131 28.766C94.6744 30.146 96.3917 32.1087 97.4651 34.654C98.5691 37.1687 99.1211 40.128 99.1211 43.532ZM76.5351 43.532C76.5351 45.4947 76.7497 47.1967 77.1791 48.638C77.6391 50.0487 78.3597 51.1373 79.3411 51.904C80.3224 52.6707 81.5951 53.054 83.1591 53.054C84.7844 53.054 86.0724 52.6707 87.0231 51.904C88.0044 51.1373 88.7097 50.0487 89.1391 48.638C89.5684 47.1967 89.7831 45.4947 89.7831 43.532C89.7831 40.5573 89.2924 38.2113 88.3111 36.494C87.3297 34.7767 85.6277 33.918 83.2051 33.918C81.6104 33.918 80.3224 34.3167 79.3411 35.114C78.3597 35.8807 77.6391 36.9847 77.1791 38.426C76.7497 39.8367 76.5351 41.5387 76.5351 43.532Z" fill="white"/>
</svg>
