<svg width="250" height="288" viewBox="0 0 250 288" fill="none" xmlns="http://www.w3.org/2000/svg">
<circle cx="125" cy="163" r="125" fill="#FFB06C"/>
<path d="M84.7483 3.27788e-09C87.5628 1.82604 89.7794 3.91009 92.3317 5.43066C100.612 10.3637 104.509 17.7332 105.558 27.1226C106.033 31.3793 107.456 35.5303 108.474 39.8345C110.439 36.2706 110.5 32.4851 111.077 28.7105C112.479 19.5355 117.535 12.3595 125.341 7.374C128.632 5.27235 132.368 3.86705 136.348 2.62913C132.077 14.4836 130.466 27.7948 116.936 33.6332C114.879 34.5209 113.857 35.9208 113.249 37.9771C111.352 44.3979 109.505 50.7293 112.296 57.4469C113.429 60.1762 113.824 63.2126 114.633 66.4212C118.048 58.7026 121.455 51.3458 124.558 43.863C126.514 39.1477 129.623 35.8377 134.164 33.5335C139.379 30.8873 144.597 28.2823 150.33 27.0266C153.021 26.4372 155.946 25.9626 158.556 29.7677C152.229 32.8938 150.718 39.7423 146.404 44.4802C142.634 48.6213 137.99 51.6021 132.29 52.3885C124.972 53.3979 121.307 57.6224 118.902 64.583C115.58 74.1997 116.834 83.6539 117.708 93.2332C118.221 98.8503 119.051 104.438 120.152 110.141C122.261 99.195 128.646 89.4406 128.138 77.7083C127.73 68.289 133.085 61.4219 139.808 55.515C140.683 54.7463 141.726 54.0124 142.968 54.6328C144.395 55.3455 144.558 56.7817 144.348 58.1056C143.104 65.9678 142.553 74.0416 136.127 80.0483C129.954 85.8191 128.755 93.8678 126.184 102.136C130.362 100.721 132.39 98.0182 133.999 95.2783C139.65 85.6513 149.177 81.6557 158.754 77.6581C159.805 77.2194 160.996 76.5583 162.006 77.5915C163.112 78.7227 162.76 80.1539 162.118 81.3274C157.693 89.4278 152.209 96.3521 142.548 98.5168C129.226 101.502 121.153 110.97 121.622 124.84C122.145 140.292 123.591 155.72 124.932 171.132C125.826 181.394 127.239 191.611 128.771 201.925C132.773 187.01 141.249 173.806 144.66 158.727C145.668 154.276 144.933 149.754 144.924 145.265C144.91 138.044 147.909 132.18 153.24 126.151C156.831 132.489 157.7 138.534 155.39 144.595C153.228 150.267 150.136 155.583 147.275 161.421C157.054 154.795 163.377 146.146 167.509 135.747C172.313 123.659 182.813 120.115 195.483 117.454C194.179 123.881 192.616 129.026 188.423 133.132C183.152 138.293 177.675 143.093 170.193 144.876C168.794 145.21 167.094 145.944 166.339 147.046C159.685 156.765 148.337 162.657 144.436 174.171C153.719 169.946 160.99 162.438 168.84 155.735C174.866 150.588 181.7 149.921 189.844 150.762C183.52 161.279 175.998 169.281 164.061 170.137C150.404 171.116 141.853 178.61 136.498 190.011C130.904 201.921 129.628 214.569 133.42 227.514C135.423 234.353 136.908 241.343 139.396 248.001C143.563 237.24 143.635 226.834 138.571 216.2C135.665 210.098 136.226 203.192 136.839 196.117C144.87 199.939 148.587 213.164 145.779 225.018C150.684 217.647 153.957 208.402 154.552 195.275C154.932 186.874 160.227 181.573 164.642 175.735C166.89 172.762 168.239 175.98 168.775 178.026C171.311 187.713 169.845 196.578 162.713 203.977C156.555 210.366 152.742 218.069 149.644 226.221C149.245 227.27 148.931 228.352 148.331 230.163C151.882 228.528 153.479 226.202 154.52 223.415C158.277 213.358 167.735 209.751 175.911 204.871C178.85 203.117 179.909 205.952 179.061 208.306C176.07 216.608 171.229 223.469 162.371 226.294C149.553 230.382 140.73 244.857 142.77 258.283C143.791 265 146.097 271.111 149.491 276.925C151.349 280.108 152.485 283.601 153.156 287.622C152.126 288 151.059 288 149.593 288C149.968 284.995 148.765 282.261 147.36 279.913C140.299 268.118 137.505 254.811 134.121 241.823C130.514 227.983 119.587 223.265 108.273 218.564C107.334 218.174 105.883 218.419 104.888 218.86C99.4602 221.27 94.1493 220.308 88.8002 218.643C81.9886 216.521 76.5056 211.469 68.9916 210.694C69.8793 206.74 72.5441 206.072 74.84 206.028C85.6682 205.822 96.5901 205.526 105.351 213.73C106.837 215.122 108.805 215.452 112.48 215.389C104.028 209.477 98.4725 202.237 90.2254 198.375C85.0787 195.965 81.1546 192.209 77.8482 187.754C73.0279 181.26 71.5641 173.266 67.8188 166.517C69.7156 164.829 70.8939 165.643 71.9647 166.401C81.4329 173.103 90.3768 180.25 94.2115 191.9C97.0607 200.555 104.546 204.761 111.869 209.474C102.758 200.341 99.3571 189.165 98.7472 176.989C100.062 176.169 100.979 176.652 101.738 177.3C109.536 183.95 116.529 191.234 115.382 202.52C114.612 210.101 116.961 215.716 123.079 220.184C125.261 221.777 126.727 224.348 129.148 225.989C124.793 204.087 124.98 181.544 114.141 161.432C110.422 154.532 105.02 150.645 98.3173 147.804C95.4789 146.601 92.7043 148.015 90.0345 148.732C78.6334 151.792 75.6337 148.577 68.0145 140.453C65.6793 137.963 66.8203 135.929 70.0319 135.818C79.7274 135.481 89.4519 135.154 97.2195 142.747C99.4768 144.953 102.411 146.31 105.477 147.386C102.634 136.689 93.8251 128.826 83.2859 127.131C76.1842 125.989 70.0633 122.674 64.9594 117.597C60.0771 112.739 57.4875 106.418 54 100.375C63.3223 102.754 73.6928 102.424 80.0809 110.613C87.3557 119.938 96.1902 127.749 103.98 136.74C103.128 131.125 102.44 125.748 97.4065 121.802C93.9711 119.108 92.0429 115.035 91.5478 110.527C91.0269 105.784 89.9719 101.136 88.5571 96.2754C89.6776 96.095 90.386 95.7432 90.8771 95.9383C96.6376 98.2268 106.718 111.891 105.96 117.613C105.195 123.384 105.799 128.785 106.957 134.375C109.566 146.963 116.093 157.82 121.763 169.952C119.774 141.735 117.558 114.396 114.143 87.1646C113.529 82.2711 111.493 77.8879 109.475 73.5215C108.226 70.8191 105.921 69.3472 102.725 69.1408C91.1774 68.395 83.2882 62.127 77.8802 52.2726C77.4818 51.5468 77.0507 50.8225 76.7868 50.0459C76.6417 49.6187 76.814 49.0837 76.8609 48.3025C92.5815 48.6664 102.364 58.3808 111.09 70.0537C112.018 65.5487 110.542 61.8267 109.598 58.101C107.758 50.8375 105.915 43.5801 104.767 36.1734C103.674 29.1238 98.6857 25.0184 93.6868 20.7815C86.9753 15.0929 81.4471 8.36461 77.1114 0.370315C79.5631 -9.23872e-07 81.9336 -9.96722e-07 84.7483 3.27788e-09Z" fill="#466600"/>
</svg>
